# xmcd
#
# Track frame offsets:
#	150
#	17869
#	38972
#	52059
#	67419
#	84147
#	95314
#	109892
#	126977
#	142354
#	157869
#
# Disc length: 2302 seconds
#
# Revision: 1
# Processed by: cddbd v1.5.2PL0 Copyright (c) Steve Scherf et al.
# Submitted via: audiograbber 1.83.01
#
DISCID=9d08fc0b
DTITLE=Dan Brodie and The Broken Arrows - Empty Arms Broken Hearts
DYEAR=2002
DGENRE=Country
TTITLE0=Jesus Try And Save Me
TTITLE1=Fell From The Sky
TTITLE2=Take A Bullet
TTITLE3=Hope That We Get Home Tonight
TTITLE4=Good To See You
TTITLE5=Sarah
TTITLE6=Footstomp
TTITLE7=You're Not Invited
TTITLE8=Too Much Of You In My Head
TTITLE9=Highway Lovin Man
TTITLE10=For Me And You
EXTD=
EXTT0=
EXTT1=
EXTT2=
EXTT3=
EXTT4=
EXTT5=
EXTT6=
EXTT7=
EXTT8=
EXTT9=
EXTT10=
PLAYORDER=
